<svg width="46" height="46" viewBox="0 0 46 46" fill="none" xmlns="http://www.w3.org/2000/svg">
<path d="M2 1.5H1.5V2V5.5H0.5V0.5H5.5V1.5H2ZM2 44.5H5.5V45.5H0.5V40.5H1.5V44V44.5H2ZM44.5 44V40.5H45.5V45.5H40.5V44.5H44H44.5V44ZM44 1.5H40.5V0.5H45.5V5.5H44.5V2V1.5H44ZM4.5 11.5V4.5H11.5V11.5H4.5ZM4.5 14.5H11.5V21.5H4.5V14.5ZM4.5 31.5V24.5H11.5V31.5H4.5ZM4.5 34.5H11.5V41.5H4.5V34.5ZM14.5 11.5V4.5H21.5V11.5H14.5ZM14.5 14.5H21.5V21.5H14.5V14.5ZM14.5 31.5V24.5H21.5V31.5H14.5ZM14.5 34.5H21.5V41.5H14.5V34.5ZM24.5 11.5V4.5H31.5V11.5H24.5ZM24.5 14.5H31.5V21.5H24.5V14.5ZM24.5 31.5V24.5H31.5V31.5H24.5ZM24.5 34.5H31.5V41.5H24.5V34.5ZM34.5 11.5V4.5H41.5V11.5H34.5ZM34.5 14.5H41.5V21.5H34.5V14.5ZM34.5 31.5V24.5H41.5V31.5H34.5ZM34.5 34.5H41.5V41.5H34.5V34.5Z" fill="#15161D" stroke="#15161D"/>
</svg>
